<svg id="Footer" xmlns="http://www.w3.org/2000/svg" xmlns:xlink="http://www.w3.org/1999/xlink" width="1920.5" height="519" viewBox="0 0 1920.5 519">
  <defs>
    <clipPath id="clip-path">
      <rect width="138" height="261" fill="none"/>
    </clipPath>
    <clipPath id="clip-path-2">
      <rect width="237" height="175" fill="none"/>
    </clipPath>
    <clipPath id="clip-path-3">
      <rect width="158" height="221" fill="none"/>
    </clipPath>
    <clipPath id="clip-path-4">
      <rect id="Rectangle_147" data-name="Rectangle 147" width="15" height="15" transform="translate(671.961 448)" fill="#6b737a"/>
    </clipPath>
    <clipPath id="clip-path-5">
      <rect id="Rectangle_153" data-name="Rectangle 153" width="16" height="15" transform="translate(1063.634 447.903)" fill="#6b737a"/>
    </clipPath>
    <clipPath id="clip-path-6">
      <rect id="Rectangle_95" data-name="Rectangle 95" width="15" height="15" transform="translate(1008 280)" fill="#6b737a"/>
    </clipPath>
  </defs>
  <g id="Rectangle_155" data-name="Rectangle 155" fill="#182026" stroke="#707070" stroke-width="1">
    <path d="M0,0H1890a30,30,0,0,1,30,30V519a0,0,0,0,1,0,0H0a0,0,0,0,1,0,0V0A0,0,0,0,1,0,0Z" stroke="none"/>
    <path d="M1,.5H1890A29.5,29.5,0,0,1,1919.5,30V518a.5.5,0,0,1-.5.5H1a.5.5,0,0,1-.5-.5V1A.5.5,0,0,1,1,.5Z" fill="none"/>
  </g>
  <path id="Path_255" data-name="Path 255" d="M0,537Z" transform="translate(0 -18)" fill="#182026"/>
  <path id="Path_254" data-name="Path 254" d="M0,0H1920" transform="translate(0.5 464.5)" fill="none" stroke="#707070" stroke-width="0.5" opacity="0.59"/>
  <g id="Group_340" data-name="Group 340" transform="translate(-28 -2838.092)">
    <g id="Path_256" data-name="Path 256" transform="translate(1317 2961.092)" fill="#f4f4f4" opacity="0.05">
      <path d="M 523 67.5 L 34 67.5 C 29.47728538513184 67.5 25.09021377563477 66.61435699462891 20.96042823791504 64.86764526367188 C 16.97135734558105 63.18035888671875 13.38871383666992 60.76485824584961 10.31192874908447 57.68807220458984 C 7.235214233398438 54.61135864257812 4.819643020629883 51.02864456176758 3.132428646087646 47.03956985473633 C 1.385642886161804 42.90985870361328 0.5 38.52271270751953 0.5 34 C 0.5 29.47728538513184 1.385642886161804 25.09014320373535 3.132428646087646 20.96042823791504 C 4.819643020629883 16.97135734558105 7.235214233398438 13.38864326477051 10.31192874908447 10.31192874908447 C 13.38871383666992 7.235142707824707 16.97135734558105 4.819643020629883 20.96042823791504 3.132357120513916 C 25.09021377563477 1.385642886161804 29.47728538513184 0.5 34 0.5 L 523 0.5 C 527.522705078125 0.5 531.9098510742188 1.385642886161804 536.03955078125 3.132357120513916 C 540.0286254882812 4.819643020629883 543.611328125 7.235142707824707 546.6880493164062 10.31192874908447 C 549.7648315429688 13.38864326477051 552.1803588867188 16.97135734558105 553.8676147460938 20.96042823791504 C 555.6143798828125 25.09014320373535 556.5 29.47728538513184 556.5 34 C 556.5 38.52271270751953 555.6143798828125 42.90985870361328 553.8676147460938 47.03956985473633 C 552.1803588867188 51.02864456176758 549.7648315429688 54.61135864257812 546.6880493164062 57.68807220458984 C 543.611328125 60.76485824584961 540.0286254882812 63.18035888671875 536.03955078125 64.86764526367188 C 531.9098510742188 66.61435699462891 527.522705078125 67.5 523 67.5 Z" stroke="none"/>
      <path d="M 34 1 C 29.5445556640625 1 25.2230224609375 1.872360229492188 21.15521240234375 3.592857360839844 C 17.2257080078125 5.254928588867188 13.6964111328125 7.634498596191406 10.6654052734375 10.66542816162109 C 7.634521484375 13.69643020629883 5.25494384765625 17.22571563720703 3.59283447265625 21.15521240234375 C 1.87237548828125 25.22299957275391 1 29.54457092285156 1 34 C 1 38.45542907714844 1.87237548828125 42.77700042724609 3.59283447265625 46.84478759765625 C 5.25494384765625 50.77428436279297 7.634521484375 54.30357360839844 10.6654052734375 57.33457183837891 C 13.6964111328125 60.36550140380859 17.2257080078125 62.74507141113281 21.15521240234375 64.40714263916016 C 25.2230224609375 66.12763977050781 29.5445556640625 67 34 67 L 523 67 C 527.4554443359375 67 531.7769775390625 66.12763977050781 535.8447875976562 64.40714263916016 C 539.7742919921875 62.74507141113281 543.3035888671875 60.36550140380859 546.3345947265625 57.33457183837891 C 549.365478515625 54.30357360839844 551.7450561523438 50.77428436279297 553.4071655273438 46.84478759765625 C 555.1276245117188 42.77700042724609 556 38.45542907714844 556 34 C 556 29.54457092285156 555.1276245117188 25.22299957275391 553.4071655273438 21.15521240234375 C 551.7450561523438 17.22571563720703 549.365478515625 13.69643020629883 546.3345947265625 10.66542816162109 C 543.3035888671875 7.634498596191406 539.7742919921875 5.254928588867188 535.8447875976562 3.592857360839844 C 531.7769775390625 1.872360229492188 527.4554443359375 1 523 1 L 34 1 M 34 0 L 523 0 C 541.7777099609375 0 557 15.22228622436523 557 34 C 557 52.77771377563477 541.7777099609375 68 523 68 L 34 68 C 15.2222900390625 68 0 52.77771377563477 0 34 C 0 15.22228622436523 15.2222900390625 0 34 0 Z" stroke="none" fill="#707070"/>
    </g>
    <rect id="Rectangle_142" data-name="Rectangle 142" width="166" height="50" rx="25" transform="translate(1695 2971.092)" fill="#950c19"/>
    <text id="Subscribe" transform="translate(1734 3002.092)" fill="#fff" stroke="rgba(0,0,0,0)" stroke-width="1" font-size="17" font-family="Poppins-Bold, Poppins" font-weight="700"><tspan x="0" y="0">Subscribe</tspan></text>
    <text id="Enter_Your_Email...." data-name="Enter Your Email...." transform="translate(1355 3002.092)" fill="#6b737a" stroke="rgba(0,0,0,0)" stroke-width="1" font-size="17" font-family="Poppins-Bold, Poppins" font-weight="700"><tspan x="0" y="0">Enter Your Email....</tspan></text>
  </g>
  <text id="Services" transform="translate(960 95)" fill="#f4f4f4" stroke="rgba(0,0,0,0)" stroke-width="1" font-size="17" font-family="Poppins-Bold, Poppins" font-weight="700"><tspan x="0" y="0">Services</tspan></text>
  <text id="Get_Email_Notifications" data-name="Get Email Notifications" transform="translate(1319 95)" fill="#f4f4f4" stroke="rgba(0,0,0,0)" stroke-width="1" font-size="17" font-family="Poppins-Bold, Poppins" font-weight="700"><tspan x="0" y="0">Get Email Notifications</tspan></text>
  <text id="Site_Pages" data-name="Site Pages" transform="translate(705 95)" fill="#f4f4f4" stroke="rgba(0,0,0,0)" stroke-width="1" font-size="17" font-family="Poppins-Bold, Poppins" font-weight="700"><tspan x="0" y="0">Site Pages</tspan></text>
  <text id="Contact_Us" data-name="Contact Us" transform="translate(422 95)" fill="#f4f4f4" stroke="rgba(0,0,0,0)" stroke-width="1" font-size="17" font-family="Poppins-Bold, Poppins" font-weight="700"><tspan x="0" y="0">Contact Us</tspan></text>
  <g id="Repeat_Grid_63" data-name="Repeat Grid 63" transform="translate(705 127)" clip-path="url(#clip-path)">
    <g transform="translate(-449 -3028)">
      <text id="Home" transform="translate(450 3047)" fill="#6b737a" stroke="rgba(0,0,0,0)" stroke-width="1" font-size="17" font-family="Poppins-Medium, Poppins" font-weight="500"><tspan x="0" y="0">Home</tspan></text>
    </g>
    <g transform="translate(-449 -2982)">
      <text id="New_Releases" data-name="New Releases" transform="translate(450 3047)" fill="#6b737a" stroke="rgba(0,0,0,0)" stroke-width="1" font-size="17" font-family="Poppins-Medium, Poppins" font-weight="500"><tspan x="0" y="0">New Releases</tspan></text>
    </g>
    <g transform="translate(-449 -2936)">
      <text id="Channels" transform="translate(450 3047)" fill="#6b737a" stroke="rgba(0,0,0,0)" stroke-width="1" font-size="17" font-family="Poppins-Medium, Poppins" font-weight="500"><tspan x="0" y="0">Channels</tspan></text>
    </g>
    <g transform="translate(-449 -2890)">
      <text id="Videos" transform="translate(450 3047)" fill="#6b737a" stroke="rgba(0,0,0,0)" stroke-width="1" font-size="17" font-family="Poppins-Medium, Poppins" font-weight="500"><tspan x="0" y="0">Videos</tspan></text>
    </g>
    <g transform="translate(-449 -2844)">
      <text id="Albums" transform="translate(450 3047)" fill="#6b737a" stroke="rgba(0,0,0,0)" stroke-width="1" font-size="17" font-family="Poppins-Medium, Poppins" font-weight="500"><tspan x="0" y="0">Albums</tspan></text>
    </g>
    <g transform="translate(-449 -2798)">
      <text id="Live_Stream" data-name="Live Stream" transform="translate(450 3047)" fill="#6b737a" stroke="rgba(0,0,0,0)" stroke-width="1" font-size="17" font-family="Poppins-Medium, Poppins" font-weight="500"><tspan x="0" y="0">Live Stream</tspan></text>
    </g>
  </g>
  <g id="Repeat_Grid_64" data-name="Repeat Grid 64" transform="translate(960 127)" clip-path="url(#clip-path-2)">
    <g transform="translate(-449 -3028)">
      <text id="Single_Cover_Design" data-name="Single Cover Design" transform="translate(450 3047)" fill="#6b737a" stroke="rgba(0,0,0,0)" stroke-width="1" font-size="17" font-family="Poppins-Medium, Poppins" font-weight="500"><tspan x="0" y="0">Single Cover Design</tspan></text>
    </g>
    <g transform="translate(-449 -2982)">
      <text id="Video_Editing" data-name="Video Editing" transform="translate(450 3047)" fill="#6b737a" stroke="rgba(0,0,0,0)" stroke-width="1" font-size="17" font-family="Poppins-Medium, Poppins" font-weight="500"><tspan x="0" y="0">Video Editing</tspan></text>
    </g>
    <g transform="translate(-449 -2936)">
      <text id="Album_Art_Design" data-name="Album Art Design" transform="translate(450 3047)" fill="#6b737a" stroke="rgba(0,0,0,0)" stroke-width="1" font-size="17" font-family="Poppins-Medium, Poppins" font-weight="500"><tspan x="0" y="0">Album Art Design</tspan></text>
    </g>
    <g transform="translate(-449 -2890)">
      <text id="Youtube_Thumbnail_Design" data-name="Youtube Thumbnail Design" transform="translate(450 3047)" fill="#6b737a" stroke="rgba(0,0,0,0)" stroke-width="1" font-size="17" font-family="Poppins-Medium, Poppins" font-weight="500"><tspan x="0" y="0">Youtube Thumbnail Design</tspan></text>
    </g>
  </g>
  <g id="Group_342" data-name="Group 342" transform="translate(0 -18)">
    <g id="Repeat_Grid_62" data-name="Repeat Grid 62" transform="translate(448 141)" clip-path="url(#clip-path-3)">
      <g transform="translate(-449 -3028)">
        <text id="Leave_A_Message" data-name="Leave A Message" transform="translate(450 3047)" fill="#6b737a" stroke="rgba(0,0,0,0)" stroke-width="1" font-size="17" font-family="Poppins-Medium, Poppins" font-weight="500"><tspan x="0" y="0">Leave A Message</tspan></text>
      </g>
      <g transform="translate(-449 -2982)">
        <text id="Report_Video" data-name="Report Video" transform="translate(450 3047)" fill="#6b737a" stroke="rgba(0,0,0,0)" stroke-width="1" font-size="17" font-family="Poppins-Medium, Poppins" font-weight="500"><tspan x="0" y="0">Report Video</tspan></text>
      </g>
      <g transform="translate(-449 -2936)">
        <text id="Advertise" transform="translate(450 3047)" fill="#6b737a" stroke="rgba(0,0,0,0)" stroke-width="1" font-size="17" font-family="Poppins-Medium, Poppins" font-weight="500"><tspan x="0" y="0">Advertise</tspan></text>
      </g>
      <g transform="translate(-449 -2890)">
        <text id="Post_A_Single" data-name="Post A Single" transform="translate(450 3047)" fill="#6b737a" stroke="rgba(0,0,0,0)" stroke-width="1" font-size="17" font-family="Poppins-Medium, Poppins" font-weight="500"><tspan x="0" y="0">Post A Single</tspan></text>
      </g>
      <g transform="translate(-449 -2844)">
        <text id="Help" transform="translate(450 3047)" fill="#6b737a" stroke="rgba(0,0,0,0)" stroke-width="1" font-size="17" font-family="Poppins-Medium, Poppins" font-weight="500"><tspan x="0" y="0">Help</tspan></text>
      </g>
    </g>
    <g id="Group_147" data-name="Group 147" transform="translate(-248.961 -255)" clip-path="url(#clip-path-4)">
      <path id="Path_276" data-name="Path 276" d="M679.48,462.961a7.48,7.48,0,1,0-7.48-7.48A7.481,7.481,0,0,0,679.48,462.961Zm-.623-11.221a.623.623,0,0,1,1.247,0v4.987a.623.623,0,0,1-1.247,0Zm.623,7.48a.623.623,0,1,1-.623.623A.624.624,0,0,1,679.48,459.221Z" fill="#6b737a"/>
    </g>
    <g id="Group_153" data-name="Group 153" transform="translate(-641.634 -163.903)" clip-path="url(#clip-path-5)">
      <path id="Path_287" data-name="Path 287" d="M1073.495,452.372v-4.085a4.338,4.338,0,0,1,1.543.993l2.173,2.177A4.345,4.345,0,0,1,1078.2,453h-4.085a.625.625,0,0,1-.443-.183A.643.643,0,0,1,1073.495,452.372Zm5,2.177v5.318a3.131,3.131,0,0,1-3.123,3.123h-6.246a3.131,3.131,0,0,1-3.123-3.123v-8.744a3.131,3.131,0,0,1,3.123-3.123h2.823c.1,0,.2.008.3.015v4.357a1.875,1.875,0,0,0,1.874,1.874h4.359C1078.485,454.346,1078.491,454.447,1078.491,454.548Zm-3.747,4.069a.643.643,0,0,0-.181-.442.625.625,0,0,0-.443-.183h-1.249v-1.249a.643.643,0,0,0-.181-.442.629.629,0,0,0-.887,0,.642.642,0,0,0-.181.442v1.249h-1.249a.625.625,0,0,0-.443.183.629.629,0,0,0,0,.883.625.625,0,0,0,.443.183h1.249v1.249a.642.642,0,0,0,.181.442.629.629,0,0,0,.887,0,.643.643,0,0,0,.181-.442v-1.249h1.249a.625.625,0,0,0,.443-.183A.643.643,0,0,0,1074.744,458.617Z" transform="translate(-0.751 -0.087)" fill="#6b737a"/>
    </g>
    <path id="Icon_awesome-question-circle" data-name="Icon awesome-question-circle" d="M15.831,8.2A7.634,7.634,0,1,1,8.2.563,7.634,7.634,0,0,1,15.831,8.2ZM8.4,3.087A3.987,3.987,0,0,0,4.814,5.049a.37.37,0,0,0,.084.5l1.068.81a.369.369,0,0,0,.513-.065c.55-.7.927-1.1,1.764-1.1.629,0,1.407.4,1.407,1.015,0,.461-.381.7-1,1.046-.724.406-1.682.911-1.682,2.175v.123a.369.369,0,0,0,.369.369H9.059a.369.369,0,0,0,.369-.369V9.51c0-.876,2.561-.913,2.561-3.284C11.989,4.441,10.137,3.087,8.4,3.087Zm-.2,7.634a1.416,1.416,0,1,0,1.416,1.416A1.418,1.418,0,0,0,8.2,10.721Z" transform="translate(421.803 330.13)" fill="#6b737a"/>
    <path id="megaphone" d="M15.289,10.636a.665.665,0,0,1-.3-.07L13.663,9.9a.665.665,0,1,1,.594-1.19l1.329.665a.665.665,0,0,1-.3,1.26ZM14.256,4.587l1.329-.665a.665.665,0,1,0-.594-1.19L13.662,3.4a.665.665,0,1,0,.594,1.19Zm1.7,2.061a.665.665,0,0,0-.665-.665H13.959a.665.665,0,1,0,0,1.329h1.329A.665.665,0,0,0,15.953,6.647ZM11.965,12.63V.665a.665.665,0,1,0-1.329,0c0,1.96-1.717,2.659-3.324,2.659H2.659A2.659,2.659,0,0,0,0,5.983V7.312A2.659,2.659,0,0,0,2.659,9.971H7.312c1.607,0,3.324.7,3.324,2.659a.665.665,0,0,0,1.329,0ZM5.441,11.3H2.659a3.989,3.989,0,0,1-.919-.111L3.4,14.9a1.775,1.775,0,0,0,1.622,1.054,1.637,1.637,0,0,0,1.49-2.308Z" transform="matrix(0.921, -0.391, 0.391, 0.921, 420.04, 241.455)" fill="#6b737a"/>
    <g id="Group_95" data-name="Group 95" transform="translate(-585 -134)" clip-path="url(#clip-path-6)">
      <path id="Path_179" data-name="Path 179" d="M1020.424,281.739a7.572,7.572,0,1,0-4.832,13.4h4.4a3.162,3.162,0,0,0,3.154-3.154v-4.892a7.625,7.625,0,0,0-2.725-5.355Zm-7.368,2.676h2.523a.634.634,0,0,1,.448.185.635.635,0,0,1,0,.892.631.631,0,0,1-.448.185h-2.523a.631.631,0,0,1-.448-.185.635.635,0,0,1,0-.892A.634.634,0,0,1,1013.056,284.415Zm5.047,6.309h-5.047a.631.631,0,0,1-.448-.185.635.635,0,0,1,0-.892.634.634,0,0,1,.448-.185h5.047a.634.634,0,0,1,.448.185.635.635,0,0,1,0,.892A.631.631,0,0,1,1018.1,290.723Zm0-2.523h-5.047a.631.631,0,0,1-.448-.185.635.635,0,0,1,0-.892.634.634,0,0,1,.448-.185h5.047a.634.634,0,0,1,.448.185.635.635,0,0,1,0,.892A.631.631,0,0,1,1018.1,288.2Z" transform="translate(-0.009 0.001)" fill="#6b737a"/>
    </g>
  </g>
  <g id="Group_341" data-name="Group 341" transform="translate(-64 -16)">
    <text id="_Music_Table_-_2023" data-name="© Music Table - 2023" transform="translate(1468 512)" fill="#6b737a" stroke="rgba(0,0,0,0)" stroke-width="1" font-size="13" font-family="Poppins-Medium, Poppins" font-weight="500"><tspan x="0" y="0">© Music Table - 2023</tspan></text>
    <text id="Web_Design_By_Shloimy_Schreiber" data-name="Web Design By Shloimy Schreiber" transform="translate(1677 512)" fill="#6b737a" stroke="rgba(0,0,0,0)" stroke-width="1" font-size="13" font-family="Poppins-Medium, Poppins" font-weight="500"><tspan x="0" y="0">Web Design By Shloimy Schreiber</tspan></text>
    <circle id="Ellipse_25" data-name="Ellipse 25" cx="2" cy="2" r="2" transform="translate(1642 506)" fill="#6b737a"/>
  </g>
</svg>
